PathFileType	4	(X/Y/Z)	E:\Marcel_BSc\Ayumi_22_01_2025\22-01-2025\conv_dl_0.trc
DataRate	CameraRate	NumFrames	NumMarkers	Units	OrigDataRate	OrigDataStartFrame	OrigNumFrames
200.0	200.0	7	47	mm	200.0	2055	2348	
Frame#	Time	FHD			LBHD			RBHD			RBAR			LBAR			RSACR			LSACR			USACR			C7			CLAV			T10			RSHO			LSHO			LTHI1			LTHI3			LTHI2			LTIB1			LTIB2			LTIB3			LMMAL			LLMAL			LHEE			LMT1			LMT5			LMT3			RTHI1			RTHI2			RTHI3			RTIB1			RTIB3			RTIB2			RLMAL			RMMAL			RHEE			RMT5			RMT1			RMT3			LMUPA			LDUPA			LUUPA			LRAD			RUL			RRAD			RUFIN			RMUPA			RDUPA			RUUPA			
		X1	Y1	Z1	X2	Y2	Z2	X3	Y3	Z3	X4	Y4	Z4	X5	Y5	Z5	X6	Y6	Z6	X7	Y7	Z7	X8	Y8	Z8	X9	Y9	Z9	X10	Y10	Z10	X11	Y11	Z11	X12	Y12	Z12	X13	Y13	Z13	X14	Y14	Z14	X15	Y15	Z15	X16	Y16	Z16	X17	Y17	Z17	X18	Y18	Z18	X19	Y19	Z19	X20	Y20	Z20	X21	Y21	Z21	X22	Y22	Z22	X23	Y23	Z23	X24	Y24	Z24	X25	Y25	Z25	X26	Y26	Z26	X27	Y27	Z27	X28	Y28	Z28	X29	Y29	Z29	X30	Y30	Z30	X31	Y31	Z31	X32	Y32	Z32	X33	Y33	Z33	X34	Y34	Z34	X35	Y35	Z35	X36	Y36	Z36	X37	Y37	Z37	X38	Y38	Z38	X39	Y39	Z39	X40	Y40	Z40	X41	Y41	Z41	X42	Y42	Z42	X43	Y43	Z43	X44	Y44	Z44	X45	Y45	Z45	X46	Y46	Z46	X47	Y47	Z47	
2055	10.265	35.085464	1517.8639	-603.20599	53.500881	1504.7292	-542.55896	81.031624	1495.8043	-673.10376	339.62686	224.06636	-1715.509	284.65857	251.03522	507.68936	500.24396	968.6319	-644.41907	497.29272	969.7301	-570.84052	490.73972	978.55823	-608.35205	260.43451	1365.7695	-592.14825	158.07967	1239.3701	-604.31055	409.51431	1134.1864	-607.02069	169.58867	1292.8521	-766.12378	183.80824	1277.6395	-431.11197	376.35992	604.12561	-411.7326	374.46222	538.75336	-424.98462	328.23752	557.89301	-414.93497	320.93491	241.52895	-407.51773	371.2511	238.47206	-412.26059	339.70544	180.24799	-415.11887	329.37344	76.899834	-497.4696	351.4957	69.454521	-420.3764	389.54312	34.775749	-470.57462	192.93706	49.396118	-448.07962	223.2766	28.422003	-376.09903	196.12268	46.553722	-413.74521	389.65967	600.56506	-798.52441	339.54398	558.25635	-797.53546	384.64713	537.37903	-784.31683	326.5274	280.68225	-805.45721	346.23843	218.72557	-796.21558	376.62738	276.98077	-799.25922	350.79019	73.418381	-783.58319	314.29373	84.363457	-714.21185	387.51886	29.220144	-732.24829	215.44615	32.169773	-819.38043	190.21143	52.307293	-762.16974	195.15399	45.924999	-793.64758	270.89304	1116.4534	-335.21008	320.53568	1121.1486	-339.77179	263.48953	1175.1	-353.92032	312.63156	824.37018	-196.11157	361.12198	875.27948	-1024.7238	323.51709	844.00909	-985.48376	322.08319	786.19537	-1021.1952	261.59711	1218.0394	-849.07672	279.7652	1165.0459	-876.49176	308.84433	1226.843	-836.96753
2056	10.27	38.073479	1521.5397	-603.38593	56.105083	1508.2897	-542.87726	83.880463	1499.26	-673.31537	339.38531	224.12967	-1715.5114	284.67117	251.04114	507.68668	498.84241	969.03247	-644.42664	495.75812	970.1889	-570.82678	489.39832	978.9613	-608.3678	262.16617	1367.6078	-592.48492	158.91708	1242.2816	-604.49066	409.35928	1134.9454	-606.96338	171.52988	1296.2319	-766.39172	185.11447	1280.8743	-431.22775	375.68842	604.57507	-411.90698	374.18799	539.20343	-425.13181	327.88464	558.02368	-415.04468	320.55383	241.88208	-407.89484	371.44476	238.51202	-412.34357	339.85132	180.3679	-415.13956	329.37869	76.91349	-497.41461	351.53964	69.462044	-420.37521	389.55423	34.767761	-470.58176	192.94321	49.413361	-448.05923	223.26085	28.393406	-376.08594	196.0612	46.662434	-413.7019	388.75098	600.93665	-798.26715	338.70447	558.55707	-797.16931	384.07452	537.78119	-784.12262	326.47983	280.71228	-805.19708	346.17572	218.71884	-796.00079	376.57706	277.00989	-799.0578	350.73596	73.452576	-783.53845	314.24115	84.325302	-714.15112	387.49689	29.216917	-732.24231	215.39937	32.122063	-819.34149	190.16862	52.191658	-762.12946	195.14384	45.799076	-793.573	271.65973	1120.229	-334.00235	321.26981	1124.562	-338.91226	264.55072	1178.7595	-353.38422	312.53091	829.40314	-191.73735	362.17316	880.08356	-1027.8909	324.5466	847.69391	-989.51361	322.42435	791.4884	-1025.3827	263.38202	1221.2446	-848.59937	281.68323	1168.7799	-877.0498	310.71866	1229.6417	-836.08325
2057	10.275	41.008293	1525.158	-603.58374	58.918053	1511.7435	-543.03766	86.73204	1502.5786	-673.52722	339.0943	224.18436	-1715.5103	284.63431	251.03835	507.6871	497.55328	969.43793	-644.49854	494.3876	970.53448	-570.83459	488.05832	979.33234	-608.38623	264.0524	1369.6348	-592.45294	159.90718	1245.0745	-604.83453	409.30521	1135.5157	-606.89923	173.44749	1299.4675	-766.68164	186.49438	1283.7983	-431.62521	374.98492	604.3175	-411.90036	373.84753	539.56281	-425.29321	327.55246	558.15863	-415.11826	320.80017	241.80852	-408.04895	371.4993	238.51445	-412.4512	339.97208	180.4729	-415.20868	329.37744	76.915443	-497.43002	351.5448	69.472801	-420.38022	389.5434	34.761623	-470.57449	192.94252	49.404778	-448.04257	223.28409	28.405537	-376.05557	196.08324	46.62384	-413.68704	387.7179	601.45282	-798.03638	337.97021	558.65027	-796.8833	383.43753	538.21387	-783.89557	326.39838	280.77646	-804.93427	346.12057	218.73705	-795.83917	376.49792	277.08856	-798.84601	350.72452	73.445007	-783.49091	314.19592	84.287285	-714.09509	387.47311	29.220182	-732.24799	215.36366	32.071987	-819.29254	190.12389	52.042244	-762.0788	195.13899	45.662365	-793.49799	272.41455	1123.9379	-332.76889	322.09491	1127.8767	-338.0434	265.59323	1182.3265	-352.82281	312.40533	834.53247	-187.31888	363.22855	884.94269	-1031.0382	325.09341	852.36786	-993.31537	323.33475	796.11761	-1030.3256	265.47333	1224.6521	-848.84937	283.56824	1172.4341	-877.61206	312.70401	1232.5551	-835.70276
2058	10.28	43.910725	1528.7363	-603.73944	61.674755	1515.0145	-543.24994	89.522202	1505.8593	-673.68585	338.85309	224.23352	-1715.5171	284.64719	251.03009	507.67969	496.32339	969.57123	-644.72321	493.15695	970.90869	-570.91565	486.71313	979.73413	-608.38153	266.04062	1371.3838	-592.34222	160.78854	1247.8427	-605.08698	409.08572	1136.2489	-606.85156	175.32837	1302.7439	-766.85938	187.74847	1287.0107	-431.53857	374.48557	604.40552	-412.01883	373.5239	539.86627	-425.48062	327.1741	558.35077	-414.93274	320.92374	241.85088	-408.11572	371.62064	238.53625	-412.53955	340.04465	180.49606	-415.25168	329.39059	76.922264	-497.41794	351.54788	69.464783	-420.39749	389.55252	34.764935	-470.57449	192.9369	49.382011	-448.04282	223.23747	28.411373	-376.05344	196.03471	46.654919	-413.70462	386.71912	601.93463	-797.77435	337.24725	558.91858	-796.59467	382.81631	538.58374	-783.75354	326.28699	280.81573	-804.69769	346.08722	218.75066	-795.70685	376.42368	277.15363	-798.64008	350.66705	73.46315	-783.4621	314.13406	84.264877	-714.04816	387.46951	29.228725	-732.2439	215.31958	32.050438	-819.21143	190.05502	51.876171	-762.04169	194.91988	45.919239	-793.64514	273.207	1127.6377	-331.51724	322.87289	1131.1956	-337.1738	266.73218	1185.8373	-352.23471	312.345	839.60016	-182.91246	364.38156	889.89996	-1034.41	325.1951	857.62866	-997.13416	323.83801	801.12189	-1034.9287	267.46594	1228.0818	-848.922	285.45435	1176.0283	-878.16577	314.62122	1235.5465	-835.30945
2059	10.285	46.849941	1532.0867	-603.86932	64.477379	1518.2444	-543.35181	92.270775	1509.0276	-673.8429	338.56952	224.27895	-1715.5215	284.61777	251.01808	507.67462	494.90604	969.63397	-644.7674	491.61966	971.31714	-570.89319	485.36743	980.04224	-608.3877	267.75201	1373.3265	-592.59595	161.64549	1250.5948	-605.23969	408.93674	1136.8359	-606.78113	177.3208	1305.901	-767.06348	189.0936	1290.0615	-431.67017	373.29062	604.75873	-412.37543	373.20297	540.20386	-425.6673	326.68588	558.38605	-415.20969	321.45871	241.65883	-407.92255	371.7468	238.53838	-412.60797	340.11459	180.52635	-415.31625	329.3815	76.911591	-497.43967	351.54233	69.497459	-420.39575	389.54181	34.760754	-470.57843	192.91875	49.345432	-448.05042	223.26994	28.396805	-376.04529	196.03577	46.625839	-413.71704	385.45081	601.99811	-797.30316	336.48792	559.02661	-796.30066	382.20938	538.97241	-783.59271	326.20169	281.02216	-804.48065	346.01419	218.81898	-795.60779	376.3663	277.18195	-798.47504	350.62265	73.457939	-783.42163	314.12399	84.230438	-714.01337	387.44449	29.22653	-732.23383	215.28314	32.0201	-819.13519	189.99356	51.698643	-761.9729	195.00079	45.476173	-793.36023	274.05957	1131.3246	-330.25494	323.65637	1134.4227	-336.32468	267.85825	1189.3118	-351.63217	311.12354	845.31152	-178.80257	365.57834	894.73938	-1037.7183	325.6803	862.35577	-1001.0417	324.36795	806.2439	-1039.5186	269.48981	1231.4213	-849.06897	287.30554	1179.5936	-878.69958	316.58783	1238.2594	-834.90167
2060	10.29	49.717346	1535.473	-604.08191	67.208542	1521.4315	-543.48102	95.01133	1512.0426	-674.0354	338.30371	224.33783	-1715.4948	284.60608	251.0195	507.70068	493.5481	969.89844	-644.79456	490.42828	971.51318	-570.91986	484.04422	980.31586	-608.44183	269.65573	1374.9734	-592.55048	162.55592	1253.285	-605.44983	408.86343	1137.3101	-606.70532	179.14587	1309.1626	-767.64044	190.3842	1292.9829	-431.85431	372.99768	605.30273	-412.41171	372.8494	540.56842	-425.85452	326.32532	558.49481	-415.17245	321.4913	241.71117	-407.98776	371.74112	238.55858	-412.71545	340.14395	180.62659	-415.37784	329.36682	76.881317	-497.45255	351.55804	69.468559	-420.43799	389.55679	34.74617	-470.57736	192.90062	49.309425	-448.06744	223.25577	28.394022	-376.02756	196.09796	46.540058	-413.71533	384.57812	602.867	-797.27722	335.75171	559.13684	-796.10999	381.6156	539.33057	-783.42322	326.08401	281.20721	-804.3186	345.96652	218.85146	-795.5022	376.31857	277.2074	-798.3338	350.6044	73.466141	-783.37817	314.0741	84.201057	-713.95868	387.43988	29.235514	-732.22931	215.2657	32.006969	-819.073	189.92845	51.533207	-761.89178	194.79019	45.716049	-793.50708	274.85602	1134.9379	-328.97748	324.52139	1137.569	-335.45154	268.95078	1192.7756	-351.01755	311.11255	850.4267	-174.31494	366.63028	899.28687	-1040.7305	325.74435	867.4632	-1005.2092	324.91565	811.36066	-1044.2893	271.51523	1234.6312	-849.24127	289.18561	1183	-879.29156	318.46249	1241.0569	-834.56348
2061	10.295	52.582073	1538.6768	-604.21942	69.947235	1524.5184	-543.57892	97.692345	1514.9894	-674.21393	338.04477	224.39464	-1715.4974	284.60114	251.01897	507.69724	492.16431	970.14368	-644.82831	488.9407	971.86298	-570.89832	482.72507	980.62976	-608.44318	271.51514	1376.371	-592.54785	163.40216	1255.8713	-605.62805	408.6792	1137.8879	-606.6416	181.11769	1312.1044	-767.8089	191.69556	1295.8348	-431.93579	372.21838	605.62677	-412.62683	372.33313	540.87231	-426.01688	325.89651	558.5993	-415.2099	321.52731	241.74454	-408.06445	371.79855	238.61073	-412.78268	340.17578	180.67438	-415.43286	329.34793	76.882225	-497.47974	351.54587	69.498856	-420.44205	389.5314	34.767452	-470.5976	192.87471	49.282345	-448.07208	223.28336	28.391644	-376.02011	196.20627	46.355663	-413.74832	383.87793	603.46912	-797.31183	335.04095	559.32837	-795.80762	380.9903	539.73486	-783.25299	326.00833	281.26801	-804.12518	345.92081	218.91599	-795.38519	376.24792	277.29456	-798.16241	350.54977	73.439957	-783.37524	314.01172	84.108955	-713.90234	387.40945	29.321329	-732.21808	215.24573	31.962517	-819.02618	189.88016	51.388309	-761.84344	194.65842	45.665962	-793.47888	275.65665	1138.5211	-327.689	325.37314	1140.7954	-334.49158	270.10471	1196.1116	-350.42801	311.05038	855.63184	-169.84967	367.74646	904.0733	-1043.9769	326.47571	871.78436	-1009.2794	325.42804	816.55157	-1048.9884	273.46567	1237.8007	-849.36066	290.98767	1186.3838	-879.86011	320.43509	1243.7435	-834.33032
